<svg width="13" height="10" viewBox="0 0 13 10" fill="none" xmlns="http://www.w3.org/2000/svg">
<path d="M0.718796 4.33333C0.321816 4.33333 -2.34651e-07 4.63181 -2.18557e-07 5C-2.02463e-07 5.36819 0.321816 5.66667 0.718796 5.66667L10.8436 5.66667L7.3985 8.86193C7.11779 9.12228 7.11779 9.54439 7.3985 9.80474C7.6792 10.0651 8.13432 10.0651 8.41503 9.80474L12.5789 5.94281C13.1404 5.42211 13.1404 4.57789 12.5789 4.05719L8.41503 0.195264C8.13432 -0.0650861 7.6792 -0.0650861 7.3985 0.195264C7.11779 0.455613 7.11779 0.877724 7.3985 1.13807L10.8436 4.33333L0.718796 4.33333Z" fill="#2D3F71"/>
</svg>
