<svg width="20" height="20" viewBox="0 0 20 20" fill="none" xmlns="http://www.w3.org/2000/svg">
<path d="M18.3333 10.0002C18.3333 5.3978 14.6023 1.66684 9.99996 1.66684C5.39759 1.66684 1.66663 5.3978 1.66663 10.0002C1.66663 13.9083 4.35713 17.1876 7.98683 18.0881V12.5467H6.26843V10.0002H7.98683V8.90287C7.98683 6.06647 9.27043 4.7518 12.0551 4.7518C12.583 4.7518 13.494 4.8553 13.8667 4.95883V7.2673C13.67 7.2466 13.3284 7.23623 12.9039 7.23623C11.5375 7.23623 11.0095 7.75383 11.0095 9.09957V10.0002H13.7315L13.2639 12.5467H11.0095V18.2725C15.1357 17.7741 18.3333 14.2608 18.3333 10.0002Z" fill="#1D4E1A"/>
</svg>
