<svg width="20" height="20" viewBox="0 0 20 20" fill="none" xmlns="http://www.w3.org/2000/svg">
<path d="M9.99855 3.84169C12.0052 3.84169 12.2428 3.85049 13.032 3.8857C13.7654 3.91797 14.1615 4.04118 14.4255 4.14386C14.7746 4.27881 15.0269 4.4431 15.288 4.7042C15.552 4.96823 15.7134 5.2176 15.8483 5.56671C15.951 5.83074 16.0742 6.22972 16.1065 6.96021C16.1417 7.75231 16.1505 7.98994 16.1505 9.99366C16.1505 12.0003 16.1417 12.2379 16.1065 13.0271C16.0742 13.7605 15.951 14.1566 15.8483 14.4206C15.7134 14.7697 15.5491 15.022 15.288 15.2831C15.024 15.5471 14.7746 15.7085 14.4255 15.8434C14.1615 15.9461 13.7625 16.0693 13.032 16.1016C12.2399 16.1368 12.0023 16.1456 9.99855 16.1456C7.9919 16.1456 7.75427 16.1368 6.9651 16.1016C6.23168 16.0693 5.83563 15.9461 5.5716 15.8434C5.22249 15.7085 4.97019 15.5442 4.70909 15.2831C4.44506 15.0191 4.2837 14.7697 4.14875 14.4206C4.04607 14.1566 3.92286 13.7576 3.89059 13.0271C3.85538 12.235 3.84658 11.9974 3.84658 9.99366C3.84658 7.98701 3.85538 7.74938 3.89059 6.96021C3.92286 6.22679 4.04607 5.83074 4.14875 5.56671C4.2837 5.2176 4.44799 4.9653 4.70909 4.7042C4.97312 4.44017 5.22249 4.27881 5.5716 4.14386C5.83563 4.04118 6.23461 3.91797 6.9651 3.8857C7.75427 3.85049 7.9919 3.84169 9.99855 3.84169ZM9.99855 2.48926C7.95963 2.48926 7.7044 2.49806 6.9035 2.53326C6.10553 2.56847 5.55693 2.69755 5.08167 2.88237C4.58588 3.076 4.16636 3.33123 3.74977 3.75075C3.33025 4.16733 3.07502 4.58685 2.8814 5.07971C2.69657 5.55791 2.56749 6.10357 2.53229 6.90154C2.49708 7.70537 2.48828 7.9606 2.48828 9.99952C2.48828 12.0384 2.49708 12.2937 2.53229 13.0946C2.56749 13.8925 2.69657 14.4411 2.8814 14.9164C3.07502 15.4122 3.33025 15.8317 3.74977 16.2483C4.16636 16.6649 4.58588 16.923 5.07874 17.1137C5.55693 17.2986 6.1026 17.4276 6.90056 17.4628C7.70146 17.4981 7.95669 17.5069 9.99561 17.5069C12.0345 17.5069 12.2898 17.4981 13.0907 17.4628C13.8886 17.4276 14.4372 17.2986 14.9125 17.1137C15.4054 16.923 15.8249 16.6649 16.2415 16.2483C16.658 15.8317 16.9162 15.4122 17.1069 14.9193C17.2917 14.4411 17.4208 13.8955 17.456 13.0975C17.4912 12.2966 17.5 12.0414 17.5 10.0025C17.5 7.96354 17.4912 7.7083 17.456 6.90741C17.4208 6.10944 17.2917 5.56084 17.1069 5.08558C16.9221 4.58685 16.6668 4.16733 16.2473 3.75075C15.8307 3.33416 15.4112 3.076 14.9184 2.88531C14.4402 2.70048 13.8945 2.5714 13.0965 2.5362C12.2927 2.49806 12.0375 2.48926 9.99855 2.48926Z" fill="#1D4E1A"/>
<path d="M9.99855 6.14171C7.86868 6.14171 6.14073 7.86966 6.14073 9.99952C6.14073 12.1294 7.86868 13.8573 9.99855 13.8573C12.1284 13.8573 13.8564 12.1294 13.8564 9.99952C13.8564 7.86966 12.1284 6.14171 9.99855 6.14171ZM9.99855 12.502C8.61678 12.502 7.4961 11.3813 7.4961 9.99952C7.4961 8.61775 8.61678 7.49708 9.99855 7.49708C11.3803 7.49708 12.501 8.61775 12.501 9.99952C12.501 11.3813 11.3803 12.502 9.99855 12.502Z" fill="#1D4E1A"/>
<path d="M14.9096 5.98913C14.9096 6.48786 14.5047 6.88978 14.0089 6.88978C13.5102 6.88978 13.1083 6.48493 13.1083 5.98913C13.1083 5.4904 13.5131 5.08849 14.0089 5.08849C14.5047 5.08849 14.9096 5.49334 14.9096 5.98913Z" fill="#1D4E1A"/>
</svg>
