<svg width="46" height="46" viewBox="0 0 46 46" fill="none" xmlns="http://www.w3.org/2000/svg">
<rect width="46" height="46" rx="23" fill="#2D3F71"/>
<path d="M12.1361 26.757C12.1361 25.8664 12.1679 25.0394 12.2316 24.2761C12.2952 23.5127 12.4012 22.7706 12.5496 22.0496C12.6981 21.3075 12.8677 20.5653 13.0585 19.8231C13.2706 19.0598 13.525 18.2434 13.8219 17.374C14.0127 16.7803 14.3096 16.0594 14.7125 15.2112C15.1366 14.363 15.6349 13.5678 16.2074 12.8257C16.8011 12.0623 17.4584 11.4156 18.1794 10.8855C18.9215 10.3554 19.6955 10.0903 20.5013 10.0903H23.1412C23.1624 10.0903 23.226 10.1115 23.3321 10.1539C23.4593 10.1751 23.5547 10.1963 23.6183 10.2175C24.4453 10.6204 25.092 11.1187 25.5585 11.7125C26.025 12.285 26.3431 13.0271 26.5127 13.9389C26.7036 14.8083 26.905 15.6459 27.1171 16.4516C27.3503 17.2362 27.4669 18.0632 27.4669 18.9326C27.4669 19.9716 27.4351 21 27.3715 22.0178C27.3291 23.0356 27.3079 24.064 27.3079 25.103C27.3079 25.1667 27.3079 25.2833 27.3079 25.4529C27.3079 25.6014 27.3079 25.771 27.3079 25.9618C27.3291 26.1527 27.3397 26.3329 27.3397 26.5025C27.3397 26.6722 27.3397 26.7782 27.3397 26.8206C27.3609 26.9902 27.3821 27.2341 27.4033 27.5522C27.4245 27.8702 27.4669 28.2201 27.5305 28.6018C27.5942 28.9835 27.6578 29.3757 27.7214 29.7786C27.785 30.1815 27.8592 30.5526 27.944 30.8919C28.0501 31.2099 28.1667 31.475 28.2939 31.687C28.4211 31.8991 28.5696 32.0051 28.7392 32.0051C29.3117 32.0051 29.9054 31.9309 30.5204 31.7824C31.1565 31.634 31.729 31.4008 32.2379 31.0827C32.2803 31.0403 32.3758 30.9661 32.5242 30.86C32.6938 30.7328 32.8635 30.6056 33.0331 30.4784C33.2239 30.3299 33.3936 30.2027 33.542 30.0967C33.7116 29.9695 33.8389 29.874 33.9237 29.8104C34.0721 29.7044 34.1887 29.6302 34.2736 29.5878C34.3796 29.5242 34.5068 29.4924 34.6552 29.4924C34.7825 29.4924 34.8991 29.5348 35.0051 29.6196C35.1111 29.6832 35.1641 29.7892 35.1641 29.9377C35.1641 30.4254 34.8885 30.8813 34.3372 31.3053C33.8071 31.7294 33.1815 32.1111 32.4606 32.4504C31.7396 32.7897 31.0081 33.0653 30.2659 33.2774C29.545 33.4682 29.0043 33.5636 28.6438 33.5636C28.1773 33.5636 27.7744 33.3304 27.4351 32.8639C27.1171 32.3762 26.8308 31.8142 26.5763 31.1781C26.3431 30.5208 26.1311 29.8528 25.9402 29.1743C25.7706 28.4746 25.6009 27.902 25.4313 27.4567C25.1344 28.3049 24.6892 29.1001 24.0954 29.8422C23.5229 30.5632 22.8656 31.1993 22.1234 31.7506C21.3813 32.3019 20.5755 32.7366 19.7061 33.0547C18.8367 33.3728 17.9567 33.5318 17.0662 33.5318C16.0908 33.5318 15.2744 33.341 14.6171 32.9593C13.9809 32.5564 13.472 32.0475 13.0903 31.4326C12.7299 30.7964 12.4754 30.0755 12.327 29.2697C12.1997 28.4427 12.1361 27.6052 12.1361 26.757ZM14.1081 26.5025C14.1081 27.1387 14.1187 27.7854 14.14 28.4427C14.1824 29.0789 14.299 29.662 14.4898 30.1921C14.7019 30.7222 15.0199 31.1569 15.444 31.4962C15.8893 31.8142 16.5148 31.9733 17.3206 31.9733C18.3808 31.9733 19.3244 31.74 20.1514 31.2735C20.9784 30.7858 21.6993 30.1603 22.3143 29.3969C22.9292 28.6124 23.4487 27.7218 23.8728 26.7252C24.2969 25.7074 24.6361 24.679 24.8906 23.6399C25.145 22.5797 25.3253 21.5513 25.4313 20.5547C25.5585 19.5581 25.6221 18.6675 25.6221 17.8829C25.0708 17.8829 24.7952 17.6285 24.7952 17.1196C24.7952 16.8015 24.8588 16.5259 24.986 16.2926C25.1132 16.0382 25.1769 15.7201 25.1769 15.3384C25.1769 14.8719 25.092 14.416 24.9224 13.9707C24.774 13.5254 24.5407 13.1225 24.2227 12.7621C23.9258 12.4016 23.5653 12.1259 23.1412 11.9351C22.7383 11.7231 22.2931 11.617 21.8054 11.617C20.8087 11.617 19.9288 11.8927 19.1654 12.444C18.4232 12.9741 17.7659 13.6739 17.1934 14.5432C16.6209 15.4126 16.1332 16.3986 15.7303 17.5013C15.3486 18.5827 15.0305 19.6853 14.7761 20.8092C14.5428 21.9118 14.3732 22.972 14.2672 23.9898C14.1612 24.9864 14.1081 25.824 14.1081 26.5025Z" fill="white"/>
</svg>
